<?xml version="1.0" encoding="UTF-8" standalone="no"?>
<svg
   height="24"
   version="1.1"
   width="24"
   id="svg674"
   sodipodi:docname="momentum-icon.svg"
   inkscape:version="1.2 (dc2aedaf03, 2022-05-15)"
   xmlns:inkscape="http://www.inkscape.org/namespaces/inkscape"
   xmlns:sodipodi="http://sodipodi.sourceforge.net/DTD/sodipodi-0.dtd"
   xmlns="http://www.w3.org/2000/svg"
   xmlns:svg="http://www.w3.org/2000/svg">
  <defs
     id="defs678" />
  <sodipodi:namedview
     id="namedview676"
     pagecolor="#ffffff"
     bordercolor="#000000"
     borderopacity="0.25"
     inkscape:showpageshadow="2"
     inkscape:pageopacity="0.0"
     inkscape:pagecheckerboard="0"
     inkscape:deskcolor="#d1d1d1"
     showgrid="false"
     inkscape:zoom="14.895833"
     inkscape:cx="18.495105"
     inkscape:cy="12.956643"
     inkscape:window-width="1280"
     inkscape:window-height="971"
     inkscape:window-x="-8"
     inkscape:window-y="-8"
     inkscape:window-maximized="1"
     inkscape:current-layer="g672" />
  <g
     transform="translate(0 -1028.4)"
     id="g672">
    <path
       d="M 24,12 C 24,18.627 18.627,24 12,24 5.3726,24 0,18.627 0,12 0,5.3726 5.3726,0 12,0 18.627,0 24,5.3726 24,12 Z"
       fill="#34495e"
       transform="matrix(0.91667,0,0,0.91667,1,1029.4)"
       id="path654"
       style="display:inline" />
    <path
       d="M 12,1 C 5.3726,1 0,6.3726 0,13 H 2 C 2,7.4771 6.4772,3 12,3 17.523,3 22,7.4771 22,13 h 2 C 24,6.3726 18.627,1 12,1 Z"
       fill="#2c3e50"
       transform="translate(0,1028.4)"
       id="path656"
       style="display:inline" />
    <text
       xml:space="preserve"
       style="font-size:20.7426px;font-family:Georgia;-inkscape-font-specification:Georgia;text-align:center;writing-mode:lr-tb;text-anchor:middle;opacity:1;fill:#cccccc;fill-opacity:1;stroke-width:0.864276"
       x="11.929103"
       y="1045.5299"
       id="text734"><tspan
         sodipodi:role="line"
         id="tspan732"
         x="11.929103"
         y="1045.5299"
         style="font-style:normal;font-variant:normal;font-weight:normal;font-stretch:normal;font-family:Georgia;-inkscape-font-specification:Georgia;fill:#cccccc;fill-opacity:1;stroke-width:0.864276">m</tspan></text>
    <path
       d="m12 1033.4c-0.552 0-1 0.4-1 1v4 1h2v-1-4c0-0.6-0.448-1-1-1z"
       fill="#bdc3c7"
       id="path660" />
    <rect
       fill="#c0392b"
       height="1"
       transform="rotate(-45)"
       width="7"
       x="-735.17"
       y="743.68"
       id="rect662" />
    <path
       d="m12 1038.4c-1.105 0-2 0.9-2 2s0.895 2 2 2 2-0.9 2-2-0.895-2-2-2zm0 1c0.552 0 1 0.4 1 1 0 0.5-0.448 1-1 1s-1-0.5-1-1c0-0.6 0.448-1 1-1z"
       fill="#bdc3c7"
       id="path664" />
    <path
       d="m12 1028.4c-6.6274 0-12 5.3-12 12 0 6.6 5.3726 12 12 12 6.627 0 12-5.4 12-12 0-6.7-5.373-12-12-12zm0 2c5.523 0 10 4.4 10 10 0 5.5-4.477 10-10 10-5.5228 0-10-4.5-10-10 0-5.6 4.4772-10 10-10z"
       fill="#95a5a6"
       id="path666" />
    <path
       d="m13 12c0 0.552-0.448 1-1 1s-1-0.448-1-1 0.448-1 1-1 1 0.448 1 1z"
       fill="#2c3e50"
       transform="translate(0 1028.4)"
       id="path668" />
    <path
       d="m13.73 1039.4c0.17 0.3 0.281 0.6 0.281 1 0 0.3-0.111 0.7-0.281 1h0.281 0.812c0.114-0.4 0.188-0.7 0.188-1 0-0.4-0.074-0.7-0.188-1h-0.812-0.281z"
       fill="#95a5a6"
       id="path670" />
    <path
       d="m 13,11 v 2 h 1 6 c 0.552,0 1,-0.448 1,-1 0,-0.552 -0.448,-1 -1,-1 h -6 z"
       fill="#bdc3c7"
       transform="translate(0,1028.4)"
       id="path658"
       style="display:inline" />
  </g>
</svg>
