<?xml version="1.0" ?><svg id="Layer_2" style="enable-background:new 0 0 32 32;" version="1.1" viewBox="0 0 32 32" xml:space="preserve" xmlns="http://www.w3.org/2000/svg" xmlns:xlink="http://www.w3.org/1999/xlink"><g><path d="M30.70001,5.01001c-0.5-0.26001-1.09003-0.22003-1.54999,0.09998l-11.63,8V6.33997c0-0.56-0.30005-1.07001-0.80005-1.32996   C16.22998,4.75,15.63,4.78998,15.16998,5.10999L1.15002,14.76001C0.73999,15.04999,0.5,15.51001,0.5,16   s0.23999,0.95996,0.65002,1.23999l14.01996,9.65002c0.26001,0.17999,0.56,0.26996,0.85004,0.26996   c0.23999,0,0.47998-0.06,0.69995-0.16998c0.5-0.26001,0.80005-0.77002,0.80005-1.33002v-6.76996l11.63,8   c0.25,0.17999,0.54999,0.26996,0.84998,0.26996c0.23999,0,0.47998-0.06,0.70001-0.16998   C31.19,26.72998,31.5,26.21997,31.5,25.65997V6.33997C31.5,5.77997,31.19,5.26996,30.70001,5.01001z"/></g></svg>