<svg viewBox="0 0 500 500" xml:space="preserve" xmlns="http://www.w3.org/2000/svg"><g fill="none" stroke="#000000" stroke-linecap="round" stroke-linejoin="round" stroke-miterlimit="2.613" stroke-width="10" class="stroke-130b7a"><path d="m101.642 134.309 18.991 296.663M120.633 430.972c0 10.5 8.519 19.031 18.992 19.031M139.625 450.003h220.764M360.389 450.003c10.474 0 18.979-8.531 18.979-19.031M379.367 430.972l19.019-296.663H101.642M432.779 115.973c0 10.059-8.143 18.215-18.188 18.215M414.592 134.188H85.409M85.409 134.188c-10.018 0-18.188-8.156-18.188-18.215"></path><path d="M67.221 115.973c0-10.019 8.17-18.188 18.188-18.188M85.409 97.784h329.183M414.592 97.784c10.045 0 18.188 8.17 18.188 18.188M307.364 97.49V68.988M307.364 68.988c0-10.474-8.505-18.991-18.965-18.991M288.399 49.997h-76.771M211.628 49.997c-10.487 0-18.979 8.518-18.979 18.991M192.649 68.988V97.49h114.715M166.332 172.278V406.06M222.102 172.278V406.06M277.926 172.278V406.06M333.669 172.278V406.06"></path></g></svg>